<?xml version="1.0" encoding="UTF-8" standalone="no"?>
<svg
   width="22"
   height="23"
   viewBox="0 0 22 23"
   fill="none"
   version="1.1"
   id="svg6"
   sodipodi:docname="clock.svg"
   inkscape:version="1.1.1 (3bf5ae0d25, 2021-09-20)"
   xmlns:inkscape="http://www.inkscape.org/namespaces/inkscape"
   xmlns:sodipodi="http://sodipodi.sourceforge.net/DTD/sodipodi-0.dtd"
   xmlns="http://www.w3.org/2000/svg"
   xmlns:svg="http://www.w3.org/2000/svg">
  <defs
     id="defs10" />
  <sodipodi:namedview
     id="namedview8"
     pagecolor="#ffffff"
     bordercolor="#666666"
     borderopacity="1.0"
     inkscape:pageshadow="2"
     inkscape:pageopacity="0.0"
     inkscape:pagecheckerboard="0"
     showgrid="false"
     inkscape:zoom="35.826087"
     inkscape:cx="11.011529"
     inkscape:cy="11.513956"
     inkscape:window-width="1920"
     inkscape:window-height="1009"
     inkscape:window-x="1912"
     inkscape:window-y="-8"
     inkscape:window-maximized="1"
     inkscape:current-layer="svg6" />
  <path
     style="color:#000000;fill:#007adc;stroke-linecap:round;stroke-linejoin:round;-inkscape-stroke:none"
     d="m 11,0.5 c -6.0632835,0 -11,4.9367165 -11,11 0,6.063238 4.9367105,11 11,11 6.063244,0 11,-4.936756 11,-11 0,-6.0632895 -4.936762,-11 -11,-11 z m 0,2 c 4.982351,0 9,4.0176006 9,9 0,4.982345 -4.017655,9 -9,9 -4.9823994,0 -9,-4.017649 -9,-9 0,-4.9824054 4.0175946,-9 9,-9 z"
     id="path2" />
  <path
     style="color:#000000;fill:#007adc;stroke-linecap:round;stroke-linejoin:round;-inkscape-stroke:none"
     d="m 11,4.5 a 1,1 0 0 0 -1,1 v 6 a 1.0001,1.0001 0 0 0 0.552734,0.894531 l 4,2 a 1,1 0 0 0 1.341797,-0.447265 1,1 0 0 0 -0.447265,-1.341797 L 12,10.882813 V 5.5 a 1,1 0 0 0 -1,-1 z"
     id="path4" />
</svg>
