<?xml version="1.0" encoding="UTF-8" standalone="no"?>
<svg
   width="14"
   height="14"
   viewBox="0 0 14 14"
   fill="none"
   version="1.1"
   id="svg6"
   sodipodi:docname="close.svg"
   inkscape:version="1.1.1 (3bf5ae0d25, 2021-09-20)"
   xmlns:inkscape="http://www.inkscape.org/namespaces/inkscape"
   xmlns:sodipodi="http://sodipodi.sourceforge.net/DTD/sodipodi-0.dtd"
   xmlns="http://www.w3.org/2000/svg"
   xmlns:svg="http://www.w3.org/2000/svg">
  <defs
     id="defs10" />
  <sodipodi:namedview
     id="namedview8"
     pagecolor="#ffffff"
     bordercolor="#666666"
     borderopacity="1.0"
     inkscape:pageshadow="2"
     inkscape:pageopacity="0.0"
     inkscape:pagecheckerboard="0"
     showgrid="false"
     inkscape:zoom="58.857143"
     inkscape:cx="7.0084951"
     inkscape:cy="7.0084951"
     inkscape:window-width="1920"
     inkscape:window-height="1009"
     inkscape:window-x="1912"
     inkscape:window-y="-8"
     inkscape:window-maximized="1"
     inkscape:current-layer="svg6" />
  <path
     style="color:#000000;fill:#919191;stroke-linecap:round;stroke-linejoin:round;-inkscape-stroke:none"
     d="M 13,0 A 1,1 0 0 0 12.292969,0.29296875 L 0.29296875,12.292969 a 1,1 0 0 0 0,1.414062 1,1 0 0 0 1.41406245,0 L 13.707031,1.7070312 a 1,1 0 0 0 0,-1.41406245 A 1,1 0 0 0 13,0 Z"
     id="path2" />
  <path
     style="color:#000000;fill:#919191;stroke-linecap:round;stroke-linejoin:round;-inkscape-stroke:none"
     d="m 1,0 a 1,1 0 0 0 -0.70703125,0.29296875 1,1 0 0 0 0,1.41406245 L 12.292969,13.707031 a 1,1 0 0 0 1.414062,0 1,1 0 0 0 0,-1.414062 L 1.7070312,0.29296875 A 1,1 0 0 0 1,0 Z"
     id="path4" />
</svg>
