<?xml version="1.0" encoding="UTF-8" standalone="no"?>
<svg
   width="25"
   height="25"
   viewBox="0 0 25 25"
   fill="none"
   version="1.1"
   id="svg3"
   sodipodi:docname="close-circle.svg"
   inkscape:version="1.3.2 (091e20e, 2023-11-25, custom)"
   xmlns:inkscape="http://www.inkscape.org/namespaces/inkscape"
   xmlns:sodipodi="http://sodipodi.sourceforge.net/DTD/sodipodi-0.dtd"
   xmlns="http://www.w3.org/2000/svg"
   xmlns:svg="http://www.w3.org/2000/svg">
  <defs
     id="defs3" />
  <sodipodi:namedview
     id="namedview3"
     pagecolor="#ffffff"
     bordercolor="#cccccc"
     borderopacity="1"
     inkscape:showpageshadow="0"
     inkscape:pageopacity="1"
     inkscape:pagecheckerboard="0"
     inkscape:deskcolor="#d1d1d1"
     inkscape:zoom="47.24"
     inkscape:cx="12.489416"
     inkscape:cy="12.5"
     inkscape:window-width="3440"
     inkscape:window-height="1377"
     inkscape:window-x="-8"
     inkscape:window-y="-8"
     inkscape:window-maximized="1"
     inkscape:current-layer="svg3" />
  <path
     fill-rule="evenodd"
     clip-rule="evenodd"
     d="M12.5 2.27273C6.85163 2.27273 2.27273 6.85163 2.27273 12.5C2.27273 18.1484 6.85163 22.7273 12.5 22.7273C18.1484 22.7273 22.7273 18.1484 22.7273 12.5C22.7273 6.85163 18.1484 2.27273 12.5 2.27273ZM0 12.5C0 5.59644 5.59644 0 12.5 0C19.4036 0 25 5.59644 25 12.5C25 19.4036 19.4036 25 12.5 25C5.59644 25 0 19.4036 0 12.5Z"
     fill="#919191"
     id="path1" />
  <path
     style="color:#000000;fill:#919191;stroke-linecap:round;stroke-linejoin:round;-inkscape-stroke:none"
     d="M 17.292969,6.2929687 6.2929687,17.292969 a 1,1 0 0 0 0,1.414062 1,1 0 0 0 1.4140625,0 L 18.707031,7.7070312 a 1,1 0 0 0 0,-1.4140625 1,1 0 0 0 -1.414062,0 z"
     id="path2" />
  <path
     style="color:#000000;fill:#919191;stroke-linecap:round;stroke-linejoin:round;-inkscape-stroke:none"
     d="m 7,6 a 1,1 0 0 0 -0.7070313,0.2929687 1,1 0 0 0 0,1.4140625 L 17.292969,18.707031 a 1,1 0 0 0 1.414062,0 1,1 0 0 0 0,-1.414062 L 7.7070312,6.2929687 A 1,1 0 0 0 7,6 Z"
     id="path3" />
</svg>
