<?xml version="1.0" encoding="UTF-8" standalone="no"?>
<svg
   width="24"
   height="20"
   viewBox="0 0 24 20"
   fill="none"
   version="1.1"
   id="svg20"
   sodipodi:docname="filter.svg"
   inkscape:version="1.1.1 (3bf5ae0d25, 2021-09-20)"
   xmlns:inkscape="http://www.inkscape.org/namespaces/inkscape"
   xmlns:sodipodi="http://sodipodi.sourceforge.net/DTD/sodipodi-0.dtd"
   xmlns="http://www.w3.org/2000/svg"
   xmlns:svg="http://www.w3.org/2000/svg">
  <defs
     id="defs24" />
  <sodipodi:namedview
     id="namedview22"
     pagecolor="#ffffff"
     bordercolor="#666666"
     borderopacity="1.0"
     inkscape:pageshadow="2"
     inkscape:pageopacity="0.0"
     inkscape:pagecheckerboard="0"
     showgrid="false"
     inkscape:zoom="41.2"
     inkscape:cx="12.002427"
     inkscape:cy="10.012136"
     inkscape:window-width="1920"
     inkscape:window-height="1009"
     inkscape:window-x="1912"
     inkscape:window-y="-8"
     inkscape:window-maximized="1"
     inkscape:current-layer="svg20" />
  <path
     style="color:#000000;fill:#007adc;stroke-linecap:round;stroke-linejoin:round;-inkscape-stroke:none"
     d="m 4,11 a 1,1 0 0 0 -1,1 v 7 a 1,1 0 0 0 1,1 1,1 0 0 0 1,-1 V 12 A 1,1 0 0 0 4,11 Z"
     id="path2" />
  <path
     style="color:#000000;fill:#007adc;stroke-linecap:round;stroke-linejoin:round;-inkscape-stroke:none"
     d="M 4,0 A 1,1 0 0 0 3,1 V 8 A 1,1 0 0 0 4,9 1,1 0 0 0 5,8 V 1 A 1,1 0 0 0 4,0 Z"
     id="path4" />
  <path
     style="color:#000000;fill:#007adc;stroke-linecap:round;stroke-linejoin:round;-inkscape-stroke:none"
     d="m 12,9 a 1,1 0 0 0 -1,1 v 9 a 1,1 0 0 0 1,1 1,1 0 0 0 1,-1 V 10 A 1,1 0 0 0 12,9 Z"
     id="path6" />
  <path
     style="color:#000000;fill:#007adc;stroke-linecap:round;stroke-linejoin:round;-inkscape-stroke:none"
     d="m 12,0 a 1,1 0 0 0 -1,1 v 5 a 1,1 0 0 0 1,1 1,1 0 0 0 1,-1 V 1 A 1,1 0 0 0 12,0 Z"
     id="path8" />
  <path
     style="color:#000000;fill:#007adc;stroke-linecap:round;stroke-linejoin:round;-inkscape-stroke:none"
     d="m 20,13 a 1,1 0 0 0 -1,1 v 5 a 1,1 0 0 0 1,1 1,1 0 0 0 1,-1 v -5 a 1,1 0 0 0 -1,-1 z"
     id="path10" />
  <path
     style="color:#000000;fill:#007adc;stroke-linecap:round;stroke-linejoin:round;-inkscape-stroke:none"
     d="m 20,0 a 1,1 0 0 0 -1,1 v 9 a 1,1 0 0 0 1,1 1,1 0 0 0 1,-1 V 1 A 1,1 0 0 0 20,0 Z"
     id="path12" />
  <path
     style="color:#000000;fill:#007adc;stroke-linecap:round;stroke-linejoin:round;-inkscape-stroke:none"
     d="m 1,11 a 1,1 0 0 0 -1,1 1,1 0 0 0 1,1 H 7 A 1,1 0 0 0 8,12 1,1 0 0 0 7,11 Z"
     id="path14" />
  <path
     style="color:#000000;fill:#007adc;stroke-linecap:round;stroke-linejoin:round;-inkscape-stroke:none"
     d="M 9,5 A 1,1 0 0 0 8,6 1,1 0 0 0 9,7 h 6 A 1,1 0 0 0 16,6 1,1 0 0 0 15,5 Z"
     id="path16" />
  <path
     style="color:#000000;fill:#007adc;stroke-linecap:round;stroke-linejoin:round;-inkscape-stroke:none"
     d="m 17,13 a 1,1 0 0 0 -1,1 1,1 0 0 0 1,1 h 6 a 1,1 0 0 0 1,-1 1,1 0 0 0 -1,-1 z"
     id="path18" />
</svg>
