<svg width="25" height="25" viewBox="0 0 25 25" fill="none" xmlns="http://www.w3.org/2000/svg">
<path fill-rule="evenodd" clip-rule="evenodd" d="M12.5 2.27273C6.85163 2.27273 2.27273 6.85163 2.27273 12.5C2.27273 18.1484 6.85163 22.7273 12.5 22.7273C18.1484 22.7273 22.7273 18.1484 22.7273 12.5C22.7273 6.85163 18.1484 2.27273 12.5 2.27273ZM0 12.5C0 5.59644 5.59644 0 12.5 0C19.4036 0 25 5.59644 25 12.5C25 19.4036 19.4036 25 12.5 25C5.59644 25 0 19.4036 0 12.5Z" fill="#007ADC"/>
<path fill-rule="evenodd" clip-rule="evenodd" d="M12.5 4C13.3284 4 14 4.74619 14 5.66667V12.3333C14 13.2538 13.3284 14 12.5 14C11.6716 14 11 13.2538 11 12.3333V5.66667C11 4.74619 11.6716 4 12.5 4Z" fill="#007ADC"/>
<path fill-rule="evenodd" clip-rule="evenodd" d="M11 17.5C11 16.6716 11.6682 16 12.4925 16H12.5075C13.3318 16 14 16.6716 14 17.5C14 18.3284 13.3318 19 12.5075 19H12.4925C11.6682 19 11 18.3284 11 17.5Z" fill="#007ADC"/>
</svg>
