<svg width="21" height="27" viewBox="0 0 21 27" fill="none" xmlns="http://www.w3.org/2000/svg">
<path fill-rule="evenodd" clip-rule="evenodd" d="M10.5 2.5C8.24906 2.5 6.08817 3.40351 4.49329 5.0152C2.89805 6.62725 2 8.81586 2 11.1001C2 13.7621 3.47958 16.6006 5.36366 19.1022C7.20461 21.5464 9.31711 23.5197 10.4074 24.4739C10.4361 24.4913 10.4681 24.5 10.5 24.5C10.5319 24.5 10.5639 24.4913 10.5926 24.4739C11.6829 23.5197 13.7954 21.5464 15.6363 19.1022C17.5204 16.6006 19 13.7621 19 11.1001C19 8.81586 18.1019 6.62725 16.5067 5.0152C14.9118 3.40351 12.7509 2.5 10.5 2.5ZM3.07168 3.60842C5.03999 1.61937 7.71182 0.5 10.5 0.5C13.2882 0.5 15.96 1.61937 17.9283 3.60842C19.8963 5.59711 21 8.29216 21 11.1001C21 14.4298 19.1908 17.7072 17.2339 20.3054C15.2546 22.9334 13.0007 25.027 11.8711 26.0126C11.8542 26.0274 11.8367 26.0417 11.8187 26.0553C11.4397 26.3433 10.9769 26.5 10.5 26.5C10.0231 26.5 9.56033 26.3433 9.18129 26.0553C9.16334 26.0417 9.14585 26.0274 9.12886 26.0126C7.9993 25.027 5.74544 22.9334 3.76609 20.3054C1.8092 17.7072 0 14.4298 0 11.1001C0 8.29216 1.10373 5.59711 3.07168 3.60842ZM10.5 8.50007C9.09463 8.50007 7.9375 9.65424 7.9375 11.1001C7.9375 12.546 9.09463 13.7002 10.5 13.7002C11.9054 13.7002 13.0625 12.546 13.0625 11.1001C13.0625 9.65424 11.9054 8.50007 10.5 8.50007ZM5.9375 11.1001C5.9375 8.56949 7.97034 6.50007 10.5 6.50007C13.0297 6.50007 15.0625 8.56949 15.0625 11.1001C15.0625 13.6307 13.0297 15.7002 10.5 15.7002C7.97034 15.7002 5.9375 13.6307 5.9375 11.1001Z" fill="#007ADC"/>
</svg>
