<?xml version="1.0" encoding="UTF-8" standalone="no"?>
<svg
   width="26"
   height="27"
   viewBox="0 0 26 27"
   fill="none"
   version="1.1"
   id="svg4"
   sodipodi:docname="phone.svg"
   inkscape:version="1.1.1 (3bf5ae0d25, 2021-09-20)"
   xmlns:inkscape="http://www.inkscape.org/namespaces/inkscape"
   xmlns:sodipodi="http://sodipodi.sourceforge.net/DTD/sodipodi-0.dtd"
   xmlns="http://www.w3.org/2000/svg"
   xmlns:svg="http://www.w3.org/2000/svg">
  <defs
     id="defs8" />
  <sodipodi:namedview
     id="namedview6"
     pagecolor="#ffffff"
     bordercolor="#666666"
     borderopacity="1.0"
     inkscape:pageshadow="2"
     inkscape:pageopacity="0.0"
     inkscape:pagecheckerboard="0"
     showgrid="false"
     inkscape:zoom="30.518519"
     inkscape:cx="12.992112"
     inkscape:cy="13.516383"
     inkscape:window-width="1920"
     inkscape:window-height="1009"
     inkscape:window-x="1912"
     inkscape:window-y="-8"
     inkscape:window-maximized="1"
     inkscape:current-layer="svg4" />
  <path
     style="color:#000000;fill:#007adc;stroke-linecap:round;stroke-linejoin:round;-inkscape-stroke:none"
     d="M 3.4042969,0.5 C 2.9311801,0.50043883 2.4639887,0.59977719 2.03125,0.79101562 1.5985098,0.98225472 1.2095134,1.2618147 0.890625,1.6113281 0.5717516,1.9608251 0.32868904,2.3718917 0.17773437,2.8203125 0.02678348,3.2687221 -0.02888952,3.7436263 0.01367188,4.2148437 a 1.0001,1.0001 0 0 0 0.0019531,0.015625 c 0.41136704,3.8757166 1.7288431,7.6012333 3.8457031,10.8730473 1.9268103,3.033783 4.4969667,5.605344 7.5292969,7.533203 3.255435,2.110541 6.959699,3.428365 10.816406,3.847656 a 1.0001,1.0001 0 0 0 0.01953,0.002 c 0.471975,0.04269 0.947435,-0.01426 1.396485,-0.166016 0.449571,-0.152027 0.863156,-0.395663 1.21289,-0.716796 0.349632,-0.320897 0.628314,-0.711629 0.81836,-1.146485 0.190026,-0.434809 0.287138,-0.904202 0.285156,-1.378906 v -3.583984 c 0.0208,-0.835571 -0.266702,-1.651379 -0.806641,-2.289063 -0.540136,-0.637918 -1.295775,-1.055007 -2.123046,-1.171875 a 1.0001,1.0001 0 0 0 -0.0098,0 c -1.079551,-0.142464 -2.139845,-0.408468 -3.160156,-0.789062 h -0.0039 c -0.608662,-0.228075 -1.270301,-0.278328 -1.90625,-0.142578 -0.637244,0.135915 -1.222441,0.452003 -1.685546,0.910156 a 1.0001,1.0001 0 0 0 -0.0039,0.0039 l -0.917968,0.917969 c -2.359217,-1.473032 -4.336291,-3.452002 -5.8085941,-5.8125 l 0.9179691,-0.917969 a 1.0001,1.0001 0 0 0 0.0039,-0.0039 c 0.458052,-0.4634019 0.774342,-1.0483958 0.910156,-1.6855471 0.135668,-0.636479 0.08608,-1.2987183 -0.142578,-1.9082032 v -0.00195 C 10.822315,5.5820446 10.5585,4.5222695 10.416016,3.4414063 a 1.0001,1.0001 0 0 0 -0.002,-0.00977 C 10.298409,2.6129832 9.8884186,1.8634497 9.2617188,1.3242187 8.6350125,0.78496807 7.8325643,0.49184857 7.0058594,0.5 Z m 12.0703121,0.005859 A 1,1 0 0 0 14.375,1.3945312 1,1 0 0 0 15.265625,2.4941406 c 2.227098,0.2347825 4.306959,1.2223485 5.896484,2.8007813 1.589626,1.5784413 2.592273,3.6522281 2.84375,5.8789061 a 1,1 0 0 0 1.105469,0.882813 1,1 0 0 0 0.882813,-1.107422 C 25.691618,8.2705618 24.482884,5.7760683 22.570312,3.8769531 20.657842,1.9778294 18.154507,0.78837636 15.474609,0.50585937 Z M 3.4042969,2.5 H 7.015625 a 1.0001,1.0001 0 0 0 0.00977,0 c 0.3416339,-0.00337 0.6724878,0.1168552 0.9316406,0.3398438 0.2591593,0.2229882 0.4286964,0.5322723 0.4765626,0.8710937 0.1625203,1.2281984 0.4635741,2.4329947 0.8964843,3.59375 a 1.0001,1.0001 0 0 0 0,0.00195 c 0.094747,0.2521018 0.1147879,0.5273833 0.058594,0.7910157 -0.056186,0.2635877 -0.1857328,0.5038348 -0.375,0.6953125 L 7.4882812,10.320313 a 1.0001,1.0001 0 0 0 -0.1621093,1.199218 c 1.8024508,3.171508 4.4276201,5.798168 7.5976561,7.601563 A 1.0001,1.0001 0 0 0 16.125,18.958984 l 1.525391,-1.52539 c 0.191494,-0.189447 0.432358,-0.318916 0.695312,-0.375 0.263155,-0.05617 0.53715,-0.03614 0.789063,0.05859 a 1.0001,1.0001 0 0 0 0.002,0 c 1.160269,0.433149 2.366125,0.733867 3.59375,0.896485 0.342127,0.04833 0.65369,0.220694 0.876953,0.484375 0.223461,0.263915 0.340634,0.599684 0.332031,0.945312 a 1.0001,1.0001 0 0 0 0,0.02539 v 3.613281 a 1.0001,1.0001 0 0 0 0,0.0039 c 8.19e-4,0.196096 -0.03861,0.390523 -0.117187,0.570313 -0.07855,0.179743 -0.193523,0.340153 -0.337891,0.472656 -0.144265,0.132467 -0.316325,0.234103 -0.501953,0.296875 -0.183545,0.06215 -0.37707,0.08502 -0.570313,0.06836 -3.544302,-0.387204 -6.948013,-1.598167 -9.939453,-3.539063 a 1.0001,1.0001 0 0 0 -0.0078,-0.0059 C 9.6802798,19.178882 7.3182742,16.817261 5.5488281,14.03125 a 1.0001,1.0001 0 0 0 -0.00391,-0.0078 C 3.5981053,11.016778 2.3858318,7.5934425 2.0058594,4.03125 c -0.01694,-0.1935588 0.00637,-0.3881153 0.068359,-0.5722656 0.062405,-0.1853786 0.1611825,-0.3555575 0.2929687,-0.5 C 2.4989587,2.8145583 2.6611246,2.7000744 2.8398438,2.6210938 3.0179751,2.5423729 3.209633,2.500448 3.4042969,2.5 Z M 15.564453,5.3359375 a 1,1 0 0 0 -1.175781,0.7871094 1,1 0 0 0 0.787109,1.1757812 c 0.987202,0.1947553 1.894404,0.6819966 2.601563,1.3984375 0.70712,0.7163935 1.181037,1.6288404 1.363281,2.6191404 a 1,1 0 0 0 1.166016,0.802735 1,1 0 0 0 0.800781,-1.166016 C 20.852667,9.5688073 20.187897,8.2926604 19.199219,7.2910156 18.210579,6.2893983 16.945049,5.6083017 15.564453,5.3359375 Z"
     id="path2" />
</svg>
