<?xml version="1.0" encoding="UTF-8" standalone="no"?>
<svg
   width="26"
   height="26"
   viewBox="0 0 26 26"
   fill="none"
   version="1.1"
   id="svg6"
   sodipodi:docname="plus.svg"
   inkscape:version="1.1.1 (3bf5ae0d25, 2021-09-20)"
   xmlns:inkscape="http://www.inkscape.org/namespaces/inkscape"
   xmlns:sodipodi="http://sodipodi.sourceforge.net/DTD/sodipodi-0.dtd"
   xmlns="http://www.w3.org/2000/svg"
   xmlns:svg="http://www.w3.org/2000/svg">
  <defs
     id="defs10" />
  <sodipodi:namedview
     id="namedview8"
     pagecolor="#ffffff"
     bordercolor="#666666"
     borderopacity="1.0"
     inkscape:pageshadow="2"
     inkscape:pageopacity="0.0"
     inkscape:pagecheckerboard="0"
     showgrid="false"
     inkscape:zoom="31.692308"
     inkscape:cx="12.984223"
     inkscape:cy="13.015777"
     inkscape:window-width="1920"
     inkscape:window-height="1009"
     inkscape:window-x="1912"
     inkscape:window-y="-8"
     inkscape:window-maximized="1"
     inkscape:current-layer="svg6" />
  <path
     style="color:#000000;fill:#007adc;stroke-linecap:round;-inkscape-stroke:none"
     d="m 1,12 a 1,1 0 0 0 -1,1 1,1 0 0 0 1,1 h 24 a 1,1 0 0 0 1,-1 1,1 0 0 0 -1,-1 z"
     id="path2" />
  <path
     style="color:#000000;fill:#007adc;stroke-linecap:round;-inkscape-stroke:none"
     d="m 13,0 a 1,1 0 0 0 -1,1 v 24 a 1,1 0 0 0 1,1 1,1 0 0 0 1,-1 V 1 A 1,1 0 0 0 13,0 Z"
     id="path4" />
</svg>
