<svg width="25" height="25" viewBox="0 0 25 25" fill="none" xmlns="http://www.w3.org/2000/svg">
<path fill-rule="evenodd" clip-rule="evenodd" d="M12.5 2.27273C6.85163 2.27273 2.27273 6.85163 2.27273 12.5C2.27273 18.1484 6.85163 22.7273 12.5 22.7273C18.1484 22.7273 22.7273 18.1484 22.7273 12.5C22.7273 6.85163 18.1484 2.27273 12.5 2.27273ZM0 12.5C0 5.59644 5.59644 0 12.5 0C19.4036 0 25 5.59644 25 12.5C25 19.4036 19.4036 25 12.5 25C5.59644 25 0 19.4036 0 12.5Z" fill="#007ADC"/>
<path d="M10.996 14.824C10.996 14.38 11.068 13.99 11.212 13.654C11.356 13.318 11.542 13.018 11.77 12.754C11.998 12.49 12.238 12.244 12.49 12.016C12.754 11.788 13 11.566 13.228 11.35C13.456 11.134 13.642 10.906 13.786 10.666C13.93 10.426 14.002 10.156 14.002 9.856C14.002 9.352 13.798 8.944 13.39 8.632C12.982 8.32 12.436 8.164 11.752 8.164C11.092 8.164 10.516 8.284 10.024 8.524C9.544 8.764 9.142 9.106 8.818 9.55L7.072 8.416C7.576 7.732 8.236 7.198 9.052 6.814C9.868 6.418 10.834 6.22 11.95 6.22C12.826 6.22 13.594 6.352 14.254 6.616C14.914 6.868 15.43 7.24 15.802 7.732C16.174 8.212 16.36 8.8 16.36 9.496C16.36 9.976 16.282 10.396 16.126 10.756C15.982 11.116 15.79 11.434 15.55 11.71C15.322 11.974 15.076 12.226 14.812 12.466C14.548 12.694 14.296 12.922 14.056 13.15C13.828 13.378 13.642 13.624 13.498 13.888C13.354 14.152 13.282 14.464 13.282 14.824H10.996ZM12.148 19.126C11.728 19.126 11.38 18.988 11.104 18.712C10.84 18.436 10.708 18.106 10.708 17.722C10.708 17.338 10.84 17.014 11.104 16.75C11.38 16.474 11.728 16.336 12.148 16.336C12.568 16.336 12.91 16.474 13.174 16.75C13.438 17.014 13.57 17.338 13.57 17.722C13.57 18.106 13.438 18.436 13.174 18.712C12.91 18.988 12.568 19.126 12.148 19.126Z" fill="#007ADC"/>
</svg>
