<svg width="23" height="27" viewBox="0 0 23 27" fill="none" xmlns="http://www.w3.org/2000/svg">
<path fill-rule="evenodd" clip-rule="evenodd" d="M11 2.94444C6.2749 2.94444 2.44444 6.7749 2.44444 11.5C2.44444 16.2251 6.2749 20.0556 11 20.0556C15.7251 20.0556 19.5556 16.2251 19.5556 11.5C19.5556 6.7749 15.7251 2.94444 11 2.94444ZM0 11.5C0 5.42487 4.92487 0.5 11 0.5C17.0751 0.5 22 5.42487 22 11.5C22 17.5751 17.0751 22.5 11 22.5C4.92487 22.5 0 17.5751 0 11.5Z" fill="white"/>
<path fill-rule="evenodd" clip-rule="evenodd" d="M15.369 18.869C15.861 18.377 16.6587 18.377 17.1507 18.869L22.631 24.3493C23.123 24.8413 23.123 25.639 22.631 26.131C22.139 26.623 21.3413 26.623 20.8493 26.131L15.369 20.6507C14.877 20.1587 14.877 19.361 15.369 18.869Z" fill="white"/>
</svg>
