<svg width="22" height="21" viewBox="0 0 22 21" fill="none" xmlns="http://www.w3.org/2000/svg">
<path d="M20.9646 9.76612L16.7459 13.4064L18.0312 18.8505C18.1021 19.146 18.0838 19.4559 17.9787 19.7411C17.8736 20.0263 17.6863 20.2739 17.4405 20.4526C17.1947 20.6314 16.9015 20.7333 16.5978 20.7455C16.2941 20.7577 15.9936 20.6796 15.7343 20.5211L10.9999 17.6074L6.26275 20.5211C6.00347 20.6787 5.70335 20.7561 5.4002 20.7434C5.09704 20.7308 4.8044 20.6287 4.55913 20.4501C4.31386 20.2715 4.12692 20.0243 4.02185 19.7396C3.91679 19.455 3.89829 19.1456 3.96869 18.8505L5.25869 13.4064L1.03994 9.76612C0.810533 9.56785 0.644621 9.30639 0.562925 9.01438C0.481229 8.72238 0.48737 8.41278 0.580581 8.12425C0.673791 7.83571 0.849941 7.58104 1.08703 7.39202C1.32412 7.203 1.61164 7.08802 1.91369 7.06143L7.44494 6.61518L9.57869 1.45143C9.69419 1.17001 9.89076 0.92929 10.1434 0.759874C10.3961 0.590458 10.6934 0.5 10.9976 0.5C11.3018 0.5 11.5991 0.590458 11.8518 0.759874C12.1044 0.92929 12.301 1.17001 12.4165 1.45143L14.5493 6.61518L20.0806 7.06143C20.3832 7.08703 20.6716 7.20137 20.9095 7.39013C21.1475 7.57888 21.3244 7.83366 21.4182 8.12255C21.512 8.41143 21.5185 8.72157 21.4368 9.0141C21.3551 9.30664 21.1889 9.56856 20.959 9.76706L20.9646 9.76612Z" fill="#F9CB2D"/>
</svg>
