<svg width="24" height="24" viewBox="0 0 24 24" fill="none" xmlns="http://www.w3.org/2000/svg">
<path fill-rule="evenodd" clip-rule="evenodd" d="M5.84804 2.19106C8.04867 0.587596 10.7497 -0.177152 13.4642 0.0346228C16.1788 0.246398 18.7285 1.42077 20.6539 3.34611C22.5792 5.27145 23.7536 7.82115 23.9654 10.5358C24.1772 13.2503 23.4124 15.9513 21.8089 18.152C20.2055 20.3526 17.8688 21.9082 15.2198 22.5384C12.7314 23.1304 10.1213 22.8692 7.80567 21.8051L1.50922 23.9395C1.09743 24.0791 0.642098 23.9728 0.334641 23.6654C0.0271838 23.3579 -0.0790862 22.9026 0.0605048 22.4908L2.1949 16.1943C1.1308 13.8787 0.869615 11.2686 1.46163 8.78016C2.09183 6.13125 3.6474 3.79452 5.84804 2.19106ZM13.2865 2.31256C11.1149 2.14314 8.95408 2.75494 7.19357 4.03771C5.43306 5.32047 4.1886 7.18986 3.68444 9.30899C3.18028 11.4281 3.44958 13.6576 4.4438 15.5958C4.58488 15.8708 4.6085 16.1912 4.50927 16.484L2.96735 21.0327L7.51602 19.4907C7.80875 19.3915 8.1292 19.4151 8.40422 19.5562C10.3424 20.5504 12.5719 20.8197 14.691 20.3156C16.8101 19.8114 18.6795 18.5669 19.9623 16.8064C21.2451 15.0459 21.8569 12.8851 21.6874 10.7135C21.518 8.54178 20.5785 6.50202 19.0383 4.96175C17.498 3.42147 15.4582 2.48198 13.2865 2.31256Z" fill="white"/>
<path fill-rule="evenodd" clip-rule="evenodd" d="M9.73054 7.07272C9.61185 6.97059 9.46013 6.91516 9.30367 6.9167L9.29915 6.91674L7.64432 6.91672C7.55485 6.91683 7.46637 6.93556 7.38451 6.97173C7.30261 7.00793 7.22912 7.0608 7.16873 7.12699C7.10833 7.19318 7.06237 7.27124 7.03377 7.35621C7.0055 7.44018 6.9948 7.52907 7.00234 7.61734C7.17633 9.25052 7.73206 10.8198 8.62461 12.1983L8.62679 12.2016C9.43778 13.4785 10.5198 14.5611 11.796 15.3725L11.7996 15.3748C13.1709 16.2645 14.7315 16.8203 16.3562 16.9977C16.4445 17.0052 16.5333 16.9944 16.6172 16.966C16.7023 16.9372 16.7804 16.891 16.8467 16.8302C16.9129 16.7694 16.9657 16.6955 17.0017 16.6131C17.0377 16.5307 17.0561 16.4417 17.0557 16.3518L17.0557 16.3499V14.6939C17.0557 14.6902 17.0558 14.6864 17.0559 14.6826C17.0598 14.5242 17.0054 14.3699 16.9031 14.2491C16.8011 14.1287 16.6587 14.05 16.5028 14.0275C15.9397 13.953 15.3867 13.8151 14.8545 13.6164L14.8535 13.616C14.7381 13.5726 14.6126 13.5632 14.4921 13.589C14.3719 13.6146 14.2615 13.6741 14.1739 13.7604L14.1731 13.7612L13.4742 14.4605C13.3283 14.6064 13.1028 14.6369 12.9234 14.5348C11.4705 13.7082 10.2675 12.5046 9.44135 11.051C9.33944 10.8717 9.36985 10.6464 9.51566 10.5005L10.2153 9.80057C10.3016 9.71294 10.3611 9.60242 10.3868 9.48201C10.4125 9.36125 10.4031 9.23563 10.3597 9.12006L10.3593 9.11903C10.1608 8.58662 10.0229 8.03348 9.94848 7.47013C9.92622 7.31563 9.84879 7.17446 9.73054 7.07272ZM12.6722 6.41034C12.6987 6.1586 12.9243 5.97604 13.176 6.00258C14.4044 6.13208 15.5518 6.67717 16.4284 7.54765C17.305 8.41814 17.8584 9.56187 17.9971 10.7897C18.0255 11.0412 17.8446 11.2682 17.5931 11.2966C17.3415 11.325 17.1146 11.1441 17.0862 10.8926C16.9709 9.87205 16.511 8.92151 15.7825 8.19811C15.054 7.47472 14.1006 7.02179 13.0799 6.91419C12.8282 6.88766 12.6456 6.66207 12.6722 6.41034ZM12.6783 8.5776C12.7273 8.32925 12.9684 8.16765 13.2167 8.21665C13.8495 8.34149 14.4302 8.65376 14.8833 9.11288C15.3365 9.57199 15.6412 10.1568 15.758 10.7913C15.8038 11.0402 15.6391 11.2792 15.3902 11.325C15.1412 11.3708 14.9023 11.2062 14.8565 10.9572C14.7729 10.5033 14.555 10.0851 14.2309 9.75681C13.9069 9.42849 13.4917 9.20523 13.0393 9.11598C12.7909 9.06698 12.6293 8.82594 12.6783 8.5776Z" fill="white"/>
</svg>
