<?xml version="1.0" encoding="UTF-8" standalone="no"?>
<svg
   width="23"
   height="28"
   viewBox="0 0 23 28"
   fill="none"
   version="1.1"
   id="svg10"
   sodipodi:docname="zoom.svg"
   inkscape:version="1.1.1 (3bf5ae0d25, 2021-09-20)"
   xmlns:inkscape="http://www.inkscape.org/namespaces/inkscape"
   xmlns:sodipodi="http://sodipodi.sourceforge.net/DTD/sodipodi-0.dtd"
   xmlns="http://www.w3.org/2000/svg"
   xmlns:svg="http://www.w3.org/2000/svg">
  <defs
     id="defs14" />
  <sodipodi:namedview
     id="namedview12"
     pagecolor="#ffffff"
     bordercolor="#666666"
     borderopacity="1.0"
     inkscape:pageshadow="2"
     inkscape:pageopacity="0.0"
     inkscape:pagecheckerboard="0"
     showgrid="false"
     inkscape:zoom="29.428571"
     inkscape:cx="11.502427"
     inkscape:cy="14.01699"
     inkscape:window-width="1920"
     inkscape:window-height="1009"
     inkscape:window-x="1912"
     inkscape:window-y="-8"
     inkscape:window-maximized="1"
     inkscape:current-layer="svg10" />
  <path
     fill-rule="evenodd"
     clip-rule="evenodd"
     d="M11 3.39067C6.2749 3.39067 2.44444 7.31379 2.44444 12.1532C2.44444 16.9926 6.2749 20.9158 11 20.9158C15.7251 20.9158 19.5556 16.9926 19.5556 12.1532C19.5556 7.31379 15.7251 3.39067 11 3.39067ZM0 12.1532C0 5.9311 4.92487 0.887085 11 0.887085C17.0751 0.887085 22 5.9311 22 12.1532C22 18.3753 17.0751 23.4193 11 23.4193C4.92487 23.4193 0 18.3753 0 12.1532Z"
     fill="white"
     id="path2" />
  <path
     style="color:#000000;fill:#ffffff;stroke-linecap:round;-inkscape-stroke:none"
     d="m 7,11 a 1,1 0 0 0 -1,1 1,1 0 0 0 1,1 h 8 a 1,1 0 0 0 1,-1 1,1 0 0 0 -1,-1 z"
     id="path4" />
  <path
     style="color:#000000;fill:#ffffff;stroke-linecap:round;-inkscape-stroke:none"
     d="m 11,7 a 1,1 0 0 0 -1,1 v 8 a 1,1 0 0 0 1,1 1,1 0 0 0 1,-1 V 8 A 1,1 0 0 0 11,7 Z"
     id="path6" />
  <path
     fill-rule="evenodd"
     clip-rule="evenodd"
     d="M15.369 19.7005C15.861 19.1966 16.6587 19.1966 17.1507 19.7005L22.631 25.3134C23.123 25.8173 23.123 26.6343 22.631 27.1382C22.139 27.6421 21.3413 27.6421 20.8493 27.1382L15.369 21.5253C14.877 21.0214 14.877 20.2044 15.369 19.7005Z"
     fill="white"
     id="path8" />
</svg>
