<svg width="50" height="50" viewBox="0 0 50 50" fill="none" xmlns="http://www.w3.org/2000/svg">
<g clip-path="url(#clip0_44_2546)">
<path d="M34 0H16C7.16344 0 0 7.16344 0 16V34C0 42.8366 7.16344 50 16 50H34C42.8366 50 50 42.8366 50 34V16C50 7.16344 42.8366 0 34 0Z" fill="white"/>
<path d="M25.0008 6C21.994 5.99922 19.0545 6.89026 16.5541 8.5604C14.0537 10.2305 12.1049 12.6048 10.9541 15.3827C9.80336 18.1606 9.50234 21.2174 10.0892 24.1665C10.676 27.1155 12.1243 29.8242 14.2508 31.95C17.0008 34.7 23.4808 38.68 23.8608 42.86C23.9208 43.49 24.3708 44 25.0008 44C25.6308 44 26.0808 43.49 26.1408 42.86C26.5208 38.68 33.0008 34.7 35.7508 31.95C37.8774 29.8242 39.3257 27.1155 39.9125 24.1665C40.4993 21.2174 40.1983 18.1606 39.0475 15.3827C37.8968 12.6048 35.9479 10.2305 33.4476 8.5604C30.9472 6.89026 28.0077 5.99922 25.0008 6Z" fill="#FF4433"/>
<path d="M24.9997 26.5209C26.4106 26.5209 27.7638 25.9604 28.7615 24.9627C29.7592 23.965 30.3197 22.6118 30.3197 21.2009C30.3197 19.7899 29.7592 18.4367 28.7615 17.4391C27.7638 16.4414 26.4106 15.8809 24.9997 15.8809C23.5887 15.8809 22.2356 16.4414 21.2379 17.4391C20.2402 18.4367 19.6797 19.7899 19.6797 21.2009C19.6797 22.6118 20.2402 23.965 21.2379 24.9627C22.2356 25.9604 23.5887 26.5209 24.9997 26.5209Z" fill="white"/>
<path fill-rule="evenodd" clip-rule="evenodd" d="M34 1H16C12.0218 1 8.20644 2.58035 5.3934 5.3934C2.58035 8.20644 1 12.0218 1 16V34C1 37.9782 2.58035 41.7936 5.3934 44.6066C8.20644 47.4196 12.0218 49 16 49H34C37.9782 49 41.7936 47.4196 44.6066 44.6066C47.4196 41.7936 49 37.9782 49 34V16C49 12.0218 47.4196 8.20644 44.6066 5.3934C41.7936 2.58035 37.9782 1 34 1ZM16 0C11.7565 0 7.68687 1.68571 4.68629 4.68629C1.68571 7.68687 0 11.7565 0 16L0 34C0 38.2435 1.68571 42.3131 4.68629 45.3137C7.68687 48.3143 11.7565 50 16 50H34C38.2435 50 42.3131 48.3143 45.3137 45.3137C48.3143 42.3131 50 38.2435 50 34V16C50 11.7565 48.3143 7.68687 45.3137 4.68629C42.3131 1.68571 38.2435 0 34 0L16 0Z" fill="black" fill-opacity="0.12"/>
</g>
<defs>
<clipPath id="clip0_44_2546">
<rect width="50" height="50" fill="white"/>
</clipPath>
</defs>
</svg>
