<svg width="51" height="50" viewBox="0 0 51 50" fill="none" xmlns="http://www.w3.org/2000/svg">
<mask id="mask0_44_2611" style="mask-type:alpha" maskUnits="userSpaceOnUse" x="0" y="0" width="51" height="50">
<path d="M38.335 49.9769C39.4398 49.9537 40.5523 49.8842 41.6415 49.6912C42.7462 49.4904 43.7815 49.1817 44.7858 48.6644C45.7825 48.1702 46.6862 47.514 47.4667 46.7419C48.2469 45.9698 48.9112 45.0742 49.4058 44.0935C49.9156 43.0975 50.2402 42.0863 50.441 40.9898C50.6419 39.909 50.7037 38.8125 50.7269 37.7162C50.7423 37.2144 50.7423 36.7125 50.75 36.2106V13.7817C50.75 13.2798 50.75 12.778 50.7269 12.2761C50.7037 11.1875 50.6342 10.0834 50.441 9.00248C50.2402 7.90612 49.9156 6.88696 49.4058 5.89871C48.9035 4.92587 48.2469 4.03027 47.4667 3.25046C46.6862 2.47837 45.7748 1.82211 44.7858 1.32798C43.7737 0.826127 42.7462 0.501852 41.6415 0.301113C40.5523 0.108091 39.4398 0.0386042 38.335 0.0154416C38.1265 0.0154416 37.9177 0.00772081 37.5779 0H15.3127L13.1805 0.0231625C12.0757 0.046325 10.9632 0.115812 9.87392 0.308833C8.76917 0.509573 7.73394 0.826127 6.7296 1.3357C5.733 1.82983 4.8291 2.4861 4.04883 3.25819C3.26854 4.03027 2.60414 4.92587 2.1097 5.90642C1.59209 6.90242 1.27534 7.91383 1.07447 9.01019C0.865884 10.0911 0.804079 11.1875 0.773177 12.2838C0.757726 12.7857 0.757726 13.2875 0.75 13.7894V36.2183C0.75 36.7202 0.757726 37.2221 0.773177 37.724C0.796354 38.8125 0.865884 39.9167 1.05902 40.9975C1.25989 42.094 1.58436 43.1131 2.09425 44.1012C2.59641 45.0742 3.25308 45.9698 4.03337 46.7496C4.81367 47.5217 5.72527 48.1779 6.71415 48.6721C7.72621 49.174 8.75371 49.4981 9.85846 49.699C10.9478 49.8919 12.0602 49.9615 13.165 49.9846C13.3736 49.9846 13.5822 49.9923 13.9221 50H35.0052L38.3196 49.9846L38.335 49.9769Z" fill="#299400"/>
</mask>
<g mask="url(#mask0_44_2611)">
<path d="M0.75 0H50.75V50H0.75V0Z" fill="#19AA1E"/>
<path fill-rule="evenodd" clip-rule="evenodd" d="M0.75 0H50.75V16.4062L0.75 8.59375V0Z" fill="#FFB919"/>
<path fill-rule="evenodd" clip-rule="evenodd" d="M0.75 44.5312L50.75 36.7188V50H0.75V44.5312Z" fill="#82D714"/>
<path fill-rule="evenodd" clip-rule="evenodd" d="M0.75 7.60498L18.2029 10.332C20.3755 8.95675 22.9602 8.20275 25.75 8.20275C29.614 8.20275 33.0846 9.64921 35.6117 12.1893C35.9306 12.5098 36.2315 12.8449 36.5133 13.193L50.75 15.4174V17.3943L37.959 15.3957C38.9092 17.2193 39.4219 19.2511 39.4219 21.3246C39.4219 24.0034 38.8227 26.6742 37.5842 29.3559L37.5465 29.4371L37.0204 30.5642H35.7765C33.2079 30.5642 31.5042 31.3325 30.3902 32.6942C29.5156 33.7634 29.0098 35.2046 28.8396 36.7771L28.8344 36.8263L28.8096 37.0775L28.799 37.1869L28.7787 37.4007C28.7135 38.1028 28.67 38.6982 28.6479 39.1834L50.75 35.73V37.7067L0.75 45.5192V43.5425L22.8769 40.085L22.8673 39.6413L22.8644 39.5161L22.8625 39.4519L22.859 39.353C22.8392 38.8148 22.7898 38.125 22.7108 37.289L22.6956 37.1305L22.6685 36.8559C22.5098 35.275 22.0115 33.8155 21.1392 32.7305C20.0369 31.3596 18.3488 30.58 15.801 30.5644L15.7235 30.5642H14.4796L13.9536 29.4371C12.6895 26.7282 12.0781 24.0305 12.0781 21.3246C12.0781 17.9219 13.4586 14.6315 15.8883 12.1893C15.9585 12.1188 16.0293 12.0491 16.1009 11.9803L0.75 9.58175V7.60498Z" fill="white"/>
<path fill-rule="evenodd" clip-rule="evenodd" d="M25.75 10.1562C32.7304 10.1562 37.4688 15.5291 37.4688 21.325C37.4688 23.6519 36.961 26.0731 35.7765 28.6115C28.9077 28.6115 27.2123 33.5306 26.8917 36.6256L26.8713 36.8319C26.7625 37.9365 26.6998 38.8227 26.6825 39.4908L24.8221 39.7817L24.8217 39.7215C24.8146 39.021 24.7483 38.0385 24.6231 36.774L24.6177 36.7187C24.3215 33.6304 22.6617 28.6115 15.7235 28.6115C14.5389 26.0731 14.0312 23.6519 14.0312 21.325C14.0312 15.5291 18.7695 10.1562 25.75 10.1562Z" fill="#0073FA"/>
</g>
</svg>
